<svg width="1000" height="1000" viewBox="0 0 1000 1000" fill="none" xmlns="http://www.w3.org/2000/svg">
<path fill-rule="evenodd" clip-rule="evenodd" d="M500 50C360.178 139.376 264.807 148.568 75 111C123.639 480.5 248.778 733 500 850C751.222 733 876.361 480.5 925 111C735.193 148.568 639.822 139.376 500 50Z" fill="#2B3467"/>
<path fill-rule="evenodd" clip-rule="evenodd" d="M500 100C376.628 178.204 292.477 186.247 125 153.375C167.917 476.688 278.333 697.625 500 800C721.667 697.625 832.083 476.688 875 153.375C707.523 186.247 623.372 178.204 500 100Z" fill="white"/>
<path d="M182.985 314.948C227.943 538.766 324.225 693.355 500 769C674.956 693.707 771.158 540.205 816.383 318.072C731.675 336.791 623.873 348 506.5 348C382.735 348 269.611 335.537 182.985 314.948Z" fill="#f43f5e"/>
<path fill-rule="evenodd" clip-rule="evenodd" d="M199.7 386.204L306.414 336.443C275.067 332.635 245.441 327.96 217.942 322.529L187.564 336.695C191.294 353.613 195.335 370.118 199.7 386.204ZM228.045 472.987L496.143 347.971C458.368 347.758 421.635 346.384 386.403 343.974L211.319 425.617C216.515 441.881 222.085 457.672 228.045 472.987ZM243.844 510.451C250.888 525.888 258.388 540.779 266.361 555.12L747.263 330.872C701.252 337.92 650.691 343.01 597.088 345.731L243.844 510.451ZM317.431 631.305L793.754 409.192C799.801 388.935 805.297 367.975 810.27 346.322L287.478 590.104C296.893 604.48 306.87 618.216 317.431 631.305ZM345.49 663.114C358.017 676.098 371.253 688.314 385.225 699.754L746.113 531.469C757.049 509.602 766.992 486.561 775.998 462.364L345.49 663.114ZM475.399 757.644L632.687 684.299C662.166 657.508 688.104 626.94 710.811 592.701L422.401 727.188C439.137 738.291 456.79 748.448 475.399 757.644Z" fill="#2B3467"/>
<path fill-rule="evenodd" clip-rule="evenodd" d="M511.054 759.708C528.079 714.716 539.15 685.46 471.5 676.5C433.246 671.433 413.348 635.946 396.521 605.937C380.138 576.718 366.667 552.693 342 567C347.044 525.67 358.576 513.44 404.5 523.5C417.2 524.662 431.5 512.5 424 497C416.5 481.5 408.161 456.167 424 436L478.5 373C489.257 387.945 480.5 402.5 463.5 424C446.5 445.5 456.5 452 471.5 436L490 415.5C495.036 418.072 496.31 421.28 495.5 430.5L478.5 461.5C473.672 470.708 478.5 470 485 467.5C491.5 465 495.5 472.5 495.5 480C495.5 487.5 505.854 491.446 514.5 480C513.513 432.161 533.5 403.5 563.5 393.5C593.5 383.5 651.016 355.082 689.5 314.5C697.41 304.797 716.971 302.408 768.5 301.5C764.937 352.329 752.356 375.235 716.5 409C746.592 408.547 742.5 427.5 728.5 444.5C714.5 461.5 690.5 478.5 690.5 478.5C703.017 504.255 699.604 517.302 670.5 537.5C672.363 573.315 667.78 586.993 643 592.5C638.634 616.889 617 615.5 597 610C577 604.5 581 623.5 585 634C589 644.5 616.892 672.234 659.5 673.5C604.843 740.345 570.706 761.329 505 776C507.022 770.362 509.078 764.929 511.054 759.708ZM366 542C369.314 542 372 539.314 372 536C372 532.686 369.314 530 366 530C362.686 530 360 532.686 360 536C360 539.314 362.686 542 366 542Z" fill="white"/>
<path d="M310.026 246.851H300.242L318.056 196.249H329.373L347.212 246.851H337.427L323.912 206.626H323.517L310.026 246.851ZM310.347 227.01H337.032V234.373H310.347V227.01Z" fill="#2B3467"/>
<path d="M358.991 247.394C357.492 247.394 356.208 246.867 355.137 245.813C354.066 244.759 353.539 243.474 353.556 241.959C353.539 240.476 354.066 239.208 355.137 238.154C356.208 237.099 357.492 236.572 358.991 236.572C360.441 236.572 361.701 237.099 362.772 238.154C363.859 239.208 364.411 240.476 364.427 241.959C364.411 242.963 364.147 243.878 363.636 244.701C363.142 245.525 362.483 246.184 361.66 246.678C360.853 247.156 359.963 247.394 358.991 247.394Z" fill="#2B3467"/>
<path d="M419.273 221.55C419.273 227.002 418.252 231.672 416.209 235.559C414.183 239.43 411.416 242.395 407.907 244.454C404.415 246.513 400.454 247.543 396.023 247.543C391.592 247.543 387.622 246.513 384.113 244.454C380.621 242.379 377.854 239.405 375.811 235.534C373.785 231.647 372.772 226.985 372.772 221.55C372.772 216.097 373.785 211.436 375.811 207.565C377.854 203.678 380.621 200.704 384.113 198.645C387.622 196.586 391.592 195.557 396.023 195.557C400.454 195.557 404.415 196.586 407.907 198.645C411.416 200.704 414.183 203.678 416.209 207.565C418.252 211.436 419.273 216.097 419.273 221.55ZM410.057 221.55C410.057 217.712 409.455 214.475 408.253 211.839C407.067 209.187 405.42 207.186 403.311 205.835C401.203 204.468 398.773 203.785 396.023 203.785C393.272 203.785 390.842 204.468 388.734 205.835C386.625 207.186 384.97 209.187 383.767 211.839C382.581 214.475 381.988 217.712 381.988 221.55C381.988 225.388 382.581 228.633 383.767 231.285C384.97 233.92 386.625 235.922 388.734 237.289C390.842 238.639 393.272 239.315 396.023 239.315C398.773 239.315 401.203 238.639 403.311 237.289C405.42 235.922 407.067 233.92 408.253 231.285C409.455 228.633 410.057 225.388 410.057 221.55Z" fill="#2B3467"/>
<path d="M429.86 247.394C428.361 247.394 427.076 246.867 426.006 245.813C424.935 244.759 424.408 243.474 424.424 241.959C424.408 240.476 424.935 239.208 426.006 238.154C427.076 237.099 428.361 236.572 429.86 236.572C431.31 236.572 432.57 237.099 433.641 238.154C434.728 239.208 435.28 240.476 435.296 241.959C435.28 242.963 435.016 243.878 434.505 244.701C434.011 245.525 433.352 246.184 432.529 246.678C431.722 247.156 430.832 247.394 429.86 247.394Z" fill="#2B3467"/>
<path d="M457.336 246.851L475.15 196.249H486.466L504.306 246.851H457.336ZM469.64 239.167H491.976L481.006 206.626H480.611L469.64 239.167Z" fill="#2B3467"/>
<path d="M520.137 196.249V246.851H510.971V196.249H520.137Z" fill="#2B3467"/>
<path d="M536.562 246.851H526.778L544.592 196.249H555.908L573.748 246.851H563.963L550.448 206.626H550.053L536.562 246.851ZM536.883 227.01H563.568V234.373H536.883V227.01Z" fill="#2B3467"/>
<path d="M621.996 196.249V246.851H613.843L589.999 212.383H589.579V246.851H580.413V196.249H588.616L612.434 230.741H612.879V196.249H621.996Z" fill="#2B3467"/>
<path d="M638.483 246.851H628.698L646.513 196.249H657.829L675.668 246.851H665.884L652.369 206.626H651.973L638.483 246.851ZM638.804 227.01H665.489V234.373H638.804V227.01Z" fill="#2B3467"/>
<path d="M298.885 308.881V267.371H306.405V284.944H325.639V267.371H333.179V308.881H325.639V291.247H306.405V308.881H298.885Z" fill="#2B3467"/>
<path d="M346.688 308.881H338.662L353.275 267.371H362.558L377.191 308.881H369.165L358.078 275.884H357.754L346.688 308.881Z" fill="#2B3467"/>
<path d="M390.178 267.371V308.881H382.659V267.371H390.178Z" fill="#2B3467"/>
<path d="M435.412 288.126C435.412 292.599 434.574 296.429 432.898 299.618C431.236 302.793 428.966 305.226 426.088 306.915C423.224 308.604 419.974 309.448 416.339 309.448C412.705 309.448 409.448 308.604 406.57 306.915C403.705 305.212 401.435 302.773 399.76 299.598C398.098 296.409 397.267 292.585 397.267 288.126C397.267 283.654 398.098 279.83 399.76 276.654C401.435 273.465 403.705 271.026 406.57 269.337C409.448 267.648 412.705 266.804 416.339 266.804C419.974 266.804 423.224 267.648 426.088 269.337C428.966 271.026 431.236 273.465 432.898 276.654C434.574 279.83 435.412 283.654 435.412 288.126ZM427.852 288.126C427.852 284.978 427.358 282.323 426.372 280.161C425.399 277.985 424.048 276.343 422.318 275.235C420.589 274.114 418.596 273.553 416.339 273.553C414.083 273.553 412.09 274.114 410.36 275.235C408.631 276.343 407.273 277.985 406.286 280.161C405.313 282.323 404.827 284.978 404.827 288.126C404.827 291.274 405.313 293.936 406.286 296.112C407.273 298.274 408.631 299.915 410.36 301.037C412.09 302.145 414.083 302.699 416.339 302.699C418.596 302.699 420.589 302.145 422.318 301.037C424.048 299.915 425.399 298.274 426.372 296.112C427.358 293.936 427.852 291.274 427.852 288.126Z" fill="#2B3467"/>
<path d="M437.342 267.371H445.834L455.989 285.734H456.394L466.549 267.371H475.041L459.941 293.396V308.881H452.442V293.396L437.342 267.371Z" fill="#2B3467"/>
<path d="M514.234 267.371V308.881H506.776V273.614H488.615V308.881H481.157V267.371H514.234Z" fill="#2B3467"/>
<path d="M560.319 288.126C560.319 292.599 559.481 296.429 557.806 299.618C556.144 302.793 553.874 305.226 550.996 306.915C548.131 308.604 544.882 309.448 541.247 309.448C537.612 309.448 534.356 308.604 531.478 306.915C528.613 305.212 526.343 302.773 524.667 299.598C523.005 296.409 522.174 292.585 522.174 288.126C522.174 283.654 523.005 279.83 524.667 276.654C526.343 273.465 528.613 271.026 531.478 269.337C534.356 267.648 537.612 266.804 541.247 266.804C544.882 266.804 548.131 267.648 550.996 269.337C553.874 271.026 556.144 273.465 557.806 276.654C559.481 279.83 560.319 283.654 560.319 288.126ZM552.759 288.126C552.759 284.978 552.266 282.323 551.28 280.161C550.307 277.985 548.955 276.343 547.226 275.235C545.496 274.114 543.503 273.553 541.247 273.553C538.99 273.553 536.997 274.114 535.268 275.235C533.538 276.343 532.18 277.985 531.194 280.161C530.221 282.323 529.734 284.978 529.734 288.126C529.734 291.274 530.221 293.936 531.194 296.112C532.18 298.274 533.538 299.915 535.268 301.037C536.997 302.145 538.99 302.699 541.247 302.699C543.503 302.699 545.496 302.145 547.226 301.037C548.955 299.915 550.307 298.274 551.28 296.112C552.266 293.936 552.759 291.274 552.759 288.126Z" fill="#2B3467"/>
<path d="M570.529 308.881H562.503L577.116 267.371H586.399L601.033 308.881H593.007L581.92 275.884H581.596L570.529 308.881Z" fill="#2B3467"/>
<path d="M606.5 308.881V267.371H614.02V284.944H633.254V267.371H640.794V308.881H633.254V291.247H614.02V308.881H606.5Z" fill="#2B3467"/>
<path d="M678.32 302.496V308.881H652.012V302.496H678.32ZM677.469 267.777V274.202H652.296V267.777H677.469ZM670.051 288.106V288.572L654.85 308.881H649.033V304.624L661.781 288.369L649.033 272.074V267.777H654.85L670.051 288.106Z" fill="#2B3467"/>
<path d="M267.855 411.323L278.964 435.947L274.519 437.995L265.369 417.711L265.225 417.777L261.146 424.101L259.302 420.013L263.626 413.271L267.855 411.323Z" fill="white"/>
<path d="M282.45 404.191C283.628 403.658 284.864 403.34 286.158 403.237C287.457 403.123 288.76 403.317 290.067 403.818C291.37 404.312 292.629 405.199 293.843 406.479C295.057 407.759 296.171 409.521 297.183 411.765C298.146 413.878 298.776 415.873 299.073 417.75C299.374 419.615 299.364 421.314 299.042 422.847C298.721 424.379 298.105 425.718 297.194 426.864C296.283 428.01 295.089 428.923 293.612 429.604C292.062 430.318 290.551 430.646 289.078 430.589C287.613 430.528 286.275 430.138 285.063 429.419C283.851 428.699 282.853 427.697 282.071 426.411L286.444 424.397C287.108 425.271 287.914 425.839 288.862 426.1C289.813 426.349 290.816 426.23 291.87 425.745C293.571 424.961 294.547 423.616 294.796 421.71C295.046 419.804 294.575 417.532 293.386 414.895L293.218 414.972C293.145 415.858 292.913 416.701 292.521 417.501C292.126 418.293 291.595 419.007 290.927 419.644C290.267 420.277 289.498 420.796 288.619 421.201C287.182 421.863 285.733 422.115 284.271 421.956C282.818 421.792 281.485 421.264 280.272 420.371C279.067 419.474 278.111 418.254 277.405 416.711C276.682 415.108 276.4 413.499 276.56 411.886C276.724 410.262 277.303 408.775 278.296 407.427C279.285 406.07 280.67 404.992 282.45 404.191ZM284.089 407.792C283.227 408.19 282.544 408.761 282.041 409.506C281.542 410.239 281.256 411.059 281.182 411.964C281.112 412.858 281.277 413.746 281.674 414.627C282.077 415.497 282.63 416.201 283.335 416.737C284.049 417.271 284.835 417.591 285.694 417.699C286.56 417.803 287.429 417.654 288.3 417.253C288.947 416.955 289.494 416.553 289.941 416.047C290.387 415.541 290.719 414.971 290.936 414.339C291.156 413.695 291.254 413.035 291.229 412.36C291.212 411.68 291.056 411.026 290.763 410.396C290.383 409.554 289.833 408.869 289.111 408.339C288.398 407.806 287.601 407.482 286.718 407.365C285.844 407.245 284.968 407.388 284.089 407.792Z" fill="white"/>
<path d="M307.308 422.886L308.391 397.35L308.315 397.182L296.204 402.762L294.522 399.035L311.234 391.335L312.953 395.146L311.921 420.761L307.308 422.886Z" fill="white"/>
<path d="M321.728 410.723L320.128 407.176L323.091 385.871L326.038 384.513L328.316 389.563L326.519 390.391L324.539 404.766L324.626 404.958L339.158 398.263L340.812 401.93L321.728 410.723ZM335.494 409.899L332.944 404.248L332.276 402.639L324.433 385.253L328.626 383.321L339.735 407.945L335.494 409.899Z" fill="white"/>
</svg>
